<?xml version="1.0" encoding="UTF-8"?>
<svg version="1.1" viewBox="0 0 1200 1200" xmlns="http://www.w3.org/2000/svg">
 <path d="m600 60c-297.76 0-540 242.24-540 540s242.24 540 540 540 540-242.24 540-540-242.24-540-540-540zm-176.14 861.73c-2.3984 2.3984-5.5312 3.6016-8.6758 3.6016s-6.2773-1.1992-8.6758-3.6016c-4.7891-4.8008-4.7891-12.562 0-17.352 133.44-133.44 44.449-251.26 0-295.7-38.762-38.762-153.3-177.13 0-330.42 4.8008-4.8008 12.562-4.8008 17.352 0 4.8008 4.7891 4.8008 12.562 0 17.352-133.44 133.44-44.449 251.26 0 295.7 38.762 38.762 153.3 177.14 0 330.42zm187.46 0c-2.3984 2.3984-5.5312 3.6016-8.6758 3.6016-3.1445 0-6.2773-1.1992-8.6758-3.6016-4.8008-4.8008-4.8008-12.562 0-17.352 133.44-133.44 44.449-251.26 0-295.7-38.762-38.762-153.3-177.13 0-330.42 4.8008-4.8008 12.562-4.8008 17.352 0 4.8008 4.7891 4.8008 12.562 0 17.352-133.44 133.44-44.449 251.26 0 295.7 38.762 38.762 153.3 177.14 0 330.42zm187.45 0c-2.3984 2.3984-5.5312 3.6016-8.6758 3.6016s-6.2773-1.1992-8.6758-3.6016c-4.8008-4.8008-4.8008-12.562 0-17.352 133.44-133.44 44.449-251.26 0-295.7-38.762-38.762-153.3-177.13 0-330.42 4.8008-4.8008 12.562-4.8008 17.352 0 4.8008 4.7891 4.8008 12.562 0 17.352-133.44 133.44-44.449 251.26 0 295.7 38.758 38.762 153.3 177.14 0 330.42z" fill="#fff"/>
</svg>
