<svg xmlns="http://www.w3.org/2000/svg" xmlns:xlink="http://www.w3.org/1999/xlink" version="1.1" x="0px" y="0px" viewBox="0 0 100 100" enable-background="new 0 0 100 100" xml:space="preserve">
  <path d="M50,5C25.187,5,5,25.187,5,50c0,24.813,20.187,45,45,45c24.813,0,45-20.187,45-45C95,25.187,74.813,5,50,5z M35.322,76.811  c-0.2,0.2-0.461,0.3-0.723,0.3c-0.262,0-0.523-0.1-0.723-0.3c-0.399-0.4-0.399-1.047,0-1.446c11.12-11.12,3.704-20.938,0-24.642  c-3.23-3.23-12.775-14.761,0-27.535c0.4-0.4,1.047-0.4,1.446,0c0.4,0.399,0.4,1.047,0,1.446c-11.12,11.12-3.704,20.938,0,24.642  C38.552,52.506,48.097,64.037,35.322,76.811z M50.944,76.811c-0.2,0.2-0.461,0.3-0.723,0.3c-0.262,0-0.523-0.1-0.723-0.3  c-0.4-0.4-0.4-1.047,0-1.446c11.12-11.12,3.704-20.938,0-24.642c-3.23-3.23-12.775-14.761,0-27.535c0.4-0.4,1.047-0.4,1.446,0  c0.4,0.399,0.4,1.047,0,1.446c-11.12,11.12-3.704,20.938,0,24.642C54.174,52.506,63.719,64.037,50.944,76.811z M66.565,76.811  c-0.2,0.2-0.461,0.3-0.723,0.3c-0.262,0-0.523-0.1-0.723-0.3c-0.4-0.4-0.4-1.047,0-1.446c11.12-11.12,3.704-20.938,0-24.642  c-3.23-3.23-12.775-14.761,0-27.535c0.4-0.4,1.047-0.4,1.446,0c0.4,0.399,0.4,1.047,0,1.446c-11.12,11.12-3.704,20.938,0,24.642  C69.795,52.506,79.34,64.037,66.565,76.811z"></path>
</svg>